<?xml version="1.0" encoding="UTF-8" standalone="no"?>
<!-- Created with Inkscape (http://www.inkscape.org/) -->

<svg
   width="8.1676865mm"
   height="9.0514021mm"
   viewBox="0 0 8.1676865 9.0514021"
   version="1.1"
   id="svg1"
   xmlns="http://www.w3.org/2000/svg"
   xmlns:svg="http://www.w3.org/2000/svg">
  <defs
     id="defs1" />
  <g
     id="layer1"
     transform="translate(-145.25626,-173.56666)">
    <path
       class="cls-1"
       d="m 150.47384,173.58784 h -2.24367 l -0.20108,0.61648 a 7.5062291,7.5062291 0 0 1 1.13506,1.651 l 0.16404,0.38364 1.4605,4.57994 h -2.91042 l 0.91546,-2.93688 a 2.8310416,2.8310416 0 0 1 -1.75948,-0.71437 l -1.778,5.45042 h 8.16769 z"
       id="path1"
       style="fill:#ff8300;stroke-width:0.264583" />
    <path
       class="cls-2"
       d="m 146.99986,174.29163 a 4.7624999,4.7624999 0 0 1 2.59291,2.76489 0.48683333,0.48683333 0 0 0 -0.0238,-0.10583 c -0.89694,-2.8284 -1.81769,-3.24644 -3.85762,-3.38402 0.58473,1.88912 0.90487,3.63802 3.25966,4.08252 a 1.1959167,1.1959167 0 0 0 0.2884,0.0159 1.5160625,1.5160625 0 0 1 0.16404,0.69056 0.47624999,0.47624999 0 0 0 0.28575,-0.13494 6.3711666,6.3711666 0 0 0 -2.70933,-3.92906"
       id="path2"
       style="fill:#4c9c2e;stroke-width:0.264583" />
  </g>
</svg>
